<svg width="1924" height="299" viewBox="0 0 1924 299" fill="none" xmlns="http://www.w3.org/2000/svg">
<g filter="url(#filter0_d)">
<path fill-rule="evenodd" clip-rule="evenodd" d="M1922 299H2V67.2283C801.878 154.866 1517.43 119.315 1922 19V299Z" fill="url(#paint0_linear)"/>
</g>
<mask id="mask0" mask-type="alpha" maskUnits="userSpaceOnUse" x="2" y="19" width="1920" height="280">
<path fill-rule="evenodd" clip-rule="evenodd" d="M1922 299H2V67.2283C801.878 154.866 1517.43 119.315 1922 19V299Z" fill="url(#paint1_linear)"/>
</mask>
<g mask="url(#mask0)">
<g filter="url(#filter1_d)">
<path d="M-2156.36 -319.518C-1812.62 -348.329 -1095.38 -355.628 -976.272 -154.336C-827.383 97.2799 -590.263 181.792 -104.995 -94.7931C380.273 -371.378 1687.19 -1137.75 1568.63 -561.53C1450.07 14.6885 1673.4 -292.628 1990.48 -236.927" stroke="white" stroke-width="0.487433"/>
<path d="M-2090.18 256.699C-1279.56 421.882 -1624.21 583.223 -921.127 404.595C-218.04 225.968 145.911 220.205 1177.11 587.065C2208.3 953.924 2114.56 621.638 2307.56 300.876" stroke="white" stroke-width="0.487433"/>
<path d="M-2153.21 -297.517C-1806.54 -321.023 -1117.91 -324.087 -999.561 -130.54C-852.855 110.935 -622.759 191.217 -143.859 -76.4505C351.781 -348.371 1613.79 -1078.52 1549.98 -512.273C1486.17 53.9762 1694.41 -254.53 2005.58 -216.755" stroke="white" stroke-width="0.487433"/>
<path d="M-2150.05 -275.363C-1800.46 -293.564 -1140.43 -292.393 -1022.85 -106.59C-878.325 124.744 -655.254 200.795 -182.722 -57.9543C323.291 -325.21 1540.4 -1019.14 1531.34 -462.862C1522.28 93.4175 1715.42 -216.277 2020.68 -196.43" stroke="white" stroke-width="0.487433"/>
<path d="M-2146.9 -253.042C-1794.37 -265.938 -1162.95 -260.533 -1046.14 -82.4744C-903.797 138.718 -687.75 210.54 -221.585 -39.2923C294.8 -301.883 1467.01 -959.596 1512.7 -413.286C1558.39 133.025 1736.42 -177.859 2035.78 -175.939" stroke="white" stroke-width="0.487433"/>
<path d="M-2143.75 -230.535C-1788.29 -238.126 -1185.48 -228.486 -1069.43 -58.1721C-929.267 152.88 -720.245 220.471 -260.448 -20.4435C266.309 -278.37 1393.61 -899.863 1494.05 -363.522C1594.49 172.818 1757.43 -139.254 2050.88 -155.261" stroke="white" stroke-width="0.487433"/>
<path d="M-2140.6 -207.817C-1782.2 -210.104 -1208 -196.229 -1092.71 -33.6596C-954.737 167.251 -752.739 230.612 -299.31 -1.38453C237.82 -254.646 1320.22 -839.92 1475.41 -313.549C1630.6 212.823 1778.44 -100.439 2065.98 -134.372" stroke="white" stroke-width="0.487433"/>
<path d="M-2137.45 -184.866C-1776.12 -181.848 -1230.52 -163.738 -1116 -8.91323C-980.209 181.856 -785.235 240.987 -338.174 17.9083C209.328 -230.689 1246.82 -779.743 1456.77 -263.341C1666.71 253.061 1799.45 -61.3904 2081.08 -113.25" stroke="white" stroke-width="0.487433"/>
<path d="M-2134.3 -161.65C-1770.04 -153.326 -1253.05 -130.982 -1139.29 16.0979C-1005.68 196.727 -817.732 251.627 -377.038 37.466C180.836 -206.467 1173.43 -719.302 1438.12 -212.869C1702.81 293.563 1820.45 -22.0767 2096.17 -91.8632" stroke="white" stroke-width="0.487433"/>
<path d="M-2131.15 -138.133C-1763.96 -124.505 -1275.57 -97.9256 -1162.58 41.4096C-1031.15 211.897 -850.228 262.568 -415.902 57.3242C152.344 -181.944 1100.04 -658.559 1419.48 -162.096C1738.92 334.367 1841.46 17.5376 2111.27 -70.1757" stroke="white" stroke-width="0.487433"/>
<path d="M-2127.99 -114.277C-1757.87 -95.3437 -1298.1 -64.5298 -1185.87 67.0608C-1056.62 227.407 -882.722 273.848 -454.765 77.5219C123.855 -157.082 1026.64 -597.477 1400.83 -110.984C1775.03 375.509 1862.47 57.4914 2126.37 -48.1487" stroke="white" stroke-width="0.487433"/>
<path d="M-2124.84 -90.0319C-1751.79 -65.7941 -1320.62 -30.7454 -1209.16 93.1005C-1082.1 243.306 -915.219 285.516 -493.629 98.1081C95.3627 -131.831 953.247 -536.007 1382.19 -59.4832C1811.13 417.041 1883.48 97.8337 2141.47 -25.7332" stroke="white" stroke-width="0.487433"/>
<path d="M-2121.69 -65.3403C-1745.71 -35.7977 -1343.14 3.48583 -1232.45 119.587C-1107.57 259.652 -947.715 297.632 -532.493 119.141C66.8708 -106.133 879.852 -474.09 1363.54 -7.53551C1847.24 459.019 1904.48 138.623 2156.57 -2.87092" stroke="white" stroke-width="0.487433"/>
<path d="M-2118.54 -40.1401C-1739.62 -5.29254 -1365.67 38.2257 -1255.73 146.582C-1133.04 276.506 -980.209 310.256 -571.355 140.683C38.3809 -79.9266 806.459 -411.664 1344.9 44.9208C1883.34 501.506 1925.49 179.921 2171.67 20.5001" stroke="white" stroke-width="0.487433"/>
<path d="M-2115.39 -14.3486C-1733.54 25.8038 -1388.19 73.5568 -1279.02 174.169C-1158.51 293.951 -1012.71 323.471 -610.219 162.816C9.88912 -53.1291 733.064 -348.647 1326.26 97.9683C1919.45 544.584 1946.5 221.81 2186.77 44.4623" stroke="white" stroke-width="0.487433"/>
<path d="M-2112.24 12.1276C-1727.46 57.5849 -1410.72 109.573 -1302.31 202.44C-1183.98 312.082 -1045.2 337.371 -649.083 185.634C-18.6023 -25.6468 659.67 -284.945 1307.61 151.701C1955.56 588.347 1967.5 264.383 2201.87 69.1092" stroke="white" stroke-width="0.487433"/>
<path d="M-2109.09 39.3933C-1721.37 90.1554 -1433.24 146.378 -1325.6 231.501C-1209.45 331.001 -1077.7 352.061 -687.948 209.241C-47.0945 2.62501 586.275 -220.454 1288.97 206.222C1991.66 632.899 1988.51 307.747 2216.96 94.5456" stroke="white" stroke-width="0.487433"/>
<path d="M-2105.94 67.5751C-1715.29 123.642 -1455.76 184.099 -1348.89 261.477C-1234.92 350.837 -1110.19 367.666 -726.81 233.764C-75.584 31.8129 512.882 -155.047 1270.33 261.66C2027.77 678.367 2009.52 352.026 2232.07 120.898" stroke="white" stroke-width="0.487433"/>
<path d="M-2102.79 96.8191C-1709.21 158.191 -1478.28 222.883 -1372.18 292.516C-1260.39 371.735 -1142.69 384.334 -765.672 259.349C-104.074 62.063 439.489 -88.5771 1251.68 318.16C2063.88 724.898 2030.53 397.368 2247.17 148.313" stroke="white" stroke-width="0.487433"/>
<path d="M-2099.63 127.281C-1703.12 193.957 -1500.81 262.884 -1395.46 324.773C-1285.87 393.85 -1175.18 402.219 -804.536 286.152C-132.566 93.5306 366.094 -20.89 1233.04 375.878C2099.98 772.646 2051.53 443.927 2262.26 176.945" stroke="white" stroke-width="0.487433"/>
<path d="M-2096.48 159.128C-1697.04 231.11 -1523.33 304.271 -1418.75 358.415C-1311.34 417.352 -1207.68 421.491 -843.4 314.341C-161.058 126.384 292.7 48.1831 1214.39 434.981C2136.09 821.78 2072.54 491.872 2277.36 206.963" stroke="white" stroke-width="0.487433"/>
<path d="M-2093.33 207.767C-1690.96 285.053 -1545.86 362.449 -1442.04 408.849C-1336.81 457.644 -1240.17 457.553 -882.263 359.321C-189.548 176.029 219.306 134.047 1195.75 510.876C2172.2 887.705 2093.55 556.608 2292.46 253.773" stroke="white" stroke-width="0.487433"/>
</g>
</g>
<defs>
<filter id="filter0_d" x="0.5377" y="0.964965" width="1922.92" height="298.035" filterUnits="userSpaceOnUse" color-interpolation-filters="sRGB">
<feFlood flood-opacity="0" result="BackgroundImageFix"/>
<feColorMatrix in="SourceAlpha" type="matrix" values="0 0 0 0 0 0 0 0 0 0 0 0 0 0 0 0 0 0 127 0"/>
<feOffset dy="-16.5727"/>
<feGaussianBlur stdDeviation="0.73115"/>
<feColorMatrix type="matrix" values="0 0 0 0 0.501961 0 0 0 0 0.901961 0 0 0 0 0.0352941 0 0 0 0.9 0"/>
<feBlend mode="normal" in2="BackgroundImageFix" result="effect1_dropShadow"/>
<feBlend mode="normal" in="SourceGraphic" in2="effect1_dropShadow" result="shape"/>
</filter>
<filter id="filter1_d" x="-2160.27" y="-773.107" width="4471.94" height="1527.06" filterUnits="userSpaceOnUse" color-interpolation-filters="sRGB">
<feFlood flood-opacity="0" result="BackgroundImageFix"/>
<feColorMatrix in="SourceAlpha" type="matrix" values="0 0 0 0 0 0 0 0 0 0 0 0 0 0 0 0 0 0 127 0"/>
<feOffset dy="1.94973"/>
<feGaussianBlur stdDeviation="1.94973"/>
<feColorMatrix type="matrix" values="0 0 0 0 0 0 0 0 0 0 0 0 0 0 0 0 0 0 0.1 0"/>
<feBlend mode="normal" in2="BackgroundImageFix" result="effect1_dropShadow"/>
<feBlend mode="normal" in="SourceGraphic" in2="effect1_dropShadow" result="shape"/>
</filter>
<linearGradient id="paint0_linear" x1="1003.68" y1="9.90551" x2="1003.68" y2="356.598" gradientUnits="userSpaceOnUse">
<stop offset="0.176688" stop-color="#8EEF11"/>
<stop offset="0.72555" stop-color="#51A407"/>
</linearGradient>
<linearGradient id="paint1_linear" x1="996.851" y1="1.63779" x2="985.677" y2="299.887" gradientUnits="userSpaceOnUse">
<stop offset="0.499643" stop-color="#6FD90C"/>
<stop offset="1" stop-color="#8DEA10"/>
</linearGradient>
</defs>
</svg>
