<svg width="302" height="230" viewBox="0 0 302 230" fill="none" xmlns="http://www.w3.org/2000/svg">
<path d="M43.1429 175.571V157.236C43.1429 155.51 41.6329 154 39.9071 154H3.23571C1.51 154 0 155.51 0 157.236V226.264C0 227.99 1.51 229.5 3.23571 229.5C4.96143 229.5 6.47143 227.99 6.47143 226.264V197.143H21.5714C29.9843 197.143 36.6714 203.83 36.6714 212.243V226.264C36.6714 227.99 38.1814 229.5 39.9071 229.5C41.6329 229.5 43.1429 227.99 43.1429 226.264V212.243C43.1429 204.477 39.0443 197.79 32.7886 193.907C39.0443 190.024 43.1429 183.337 43.1429 175.571ZM36.6714 175.571C36.6714 183.984 29.9843 190.671 21.5714 190.671H6.47143V160.471H36.6714V175.571Z" fill="#272B22"/>
<path d="M301.999 157.236V226.264C301.999 227.99 300.496 229.5 298.777 229.5C297.059 229.5 295.556 227.99 295.556 226.264V165.001L281.165 189.593C280.736 190.24 280.091 190.671 279.232 190.671H275.151C274.292 190.671 273.648 190.24 273.218 189.593L258.828 165.001V226.264C258.828 227.99 257.325 229.5 255.606 229.5C253.888 229.5 252.385 227.99 252.385 226.264V157.236C252.385 155.51 253.888 154 255.606 154H257.539C258.399 154 259.043 154.431 259.473 155.079L277.085 185.279L294.697 155.079C295.126 154.431 295.77 154 296.63 154H298.563C300.496 154 301.999 155.51 301.999 157.236Z" fill="#272B22"/>
<path d="M187.886 155.079L172.355 185.279L156.823 155.079C156.392 154.431 155.745 154 154.882 154H153.156C151.646 154 150.568 155.726 151.215 157.236L169.119 191.75L151.215 226.264C150.568 227.774 151.431 229.5 153.156 229.5H154.882C155.745 229.5 156.392 229.069 156.823 228.421L172.355 198.221L187.886 228.421C188.318 229.069 188.965 229.5 189.828 229.5H191.553C193.063 229.5 194.142 227.774 193.495 226.264L175.591 191.75L193.495 157.236C194.142 155.726 193.279 154 191.553 154H189.828C188.965 154 188.318 154.431 187.886 155.079Z" fill="#272B22"/>
<path d="M94.9143 226.264C94.9143 227.99 93.4043 229.5 91.6786 229.5H55.0072C53.2815 229.5 51.7715 227.99 51.7715 226.264V157.236C51.7715 155.51 53.2815 154 55.0072 154H91.6786C93.4043 154 94.9143 155.51 94.9143 157.236C94.9143 158.961 93.4043 160.471 91.6786 160.471H58.2429V190.671H83.0501C84.7758 190.671 86.2858 192.181 86.2858 193.907C86.2858 195.633 84.7758 197.143 83.0501 197.143H58.2429V223.029H91.6786C93.4043 223.029 94.9143 224.539 94.9143 226.264Z" fill="#272B22"/>
<path d="M125.114 154H106.779C105.053 154 103.543 155.51 103.543 157.236V226.264C103.543 227.99 105.053 229.5 106.779 229.5H125.114C136.979 229.5 146.686 219.793 146.686 207.929V175.571C146.686 163.707 136.979 154 125.114 154ZM140.214 207.929C140.214 216.341 133.527 223.029 125.114 223.029H110.014V160.471H125.114C133.527 160.471 140.214 167.159 140.214 175.571V207.929Z" fill="#272B22"/>
<path d="M240.52 154H222.185C210.32 154 200.613 163.707 200.613 175.571V226.264C200.613 227.99 202.123 229.5 203.849 229.5C205.575 229.5 207.085 227.99 207.085 226.264V197.143H237.285V226.264C237.285 227.99 238.795 229.5 240.52 229.5C242.246 229.5 243.756 227.99 243.756 226.264V157.236C243.756 155.51 242.246 154 240.52 154ZM207.085 190.671V175.571C207.085 167.159 213.772 160.471 222.185 160.471H237.285V190.671H207.085Z" fill="#272B22"/>
<g filter="url(#filter0_d)">
<path d="M204 4.98571V40.8571C204 70.0857 180.15 94 151 94H122.91C120.525 94 119.465 91.0771 121.055 89.4829L123.705 86.8257C124.235 86.2943 124.765 86.0286 125.56 86.0286H151C175.91 86.0286 196.05 65.8343 196.05 40.8571V8.97143H151C145.965 8.97143 140.93 9.76857 136.425 11.3629C133.775 12.4257 131.125 13.4886 128.74 14.8171C126.62 15.88 124.765 17.4743 122.91 18.8029C120.79 20.6629 118.67 22.5229 117.08 24.3829C110.19 32.3543 105.95 42.7171 105.95 54.1429V82.84L141.725 46.9686C142.255 46.4371 142.785 46.1714 143.58 46.1714H155.77L176.175 25.7114C176.705 25.18 177.235 24.9143 178.03 24.9143H181.74C184.125 24.9143 185.185 27.8371 183.595 29.4314L159.745 53.3457C159.215 53.8771 158.685 54.1429 157.89 54.1429H145.7L106.745 93.2029C106.215 93.7343 105.685 94 104.89 94H101.975C99.855 94 98 92.14 98 90.0143V54.1429C98 49.6257 98.53 45.1086 99.59 40.8571C101.71 32.62 105.95 24.9143 111.515 18.8029C113.105 16.9429 114.96 15.0829 117.08 13.2229C121.055 10.0343 125.56 7.11143 130.33 5.25143C136.69 2.59429 143.58 1 151 1H200.025C202.145 1 204 2.86 204 4.98571Z" fill="url(#paint0_linear)"/>
</g>
<defs>
<filter id="filter0_d" x="94" y="0" width="114" height="101" filterUnits="userSpaceOnUse" color-interpolation-filters="sRGB">
<feFlood flood-opacity="0" result="BackgroundImageFix"/>
<feColorMatrix in="SourceAlpha" type="matrix" values="0 0 0 0 0 0 0 0 0 0 0 0 0 0 0 0 0 0 127 0"/>
<feOffset dy="3"/>
<feGaussianBlur stdDeviation="2"/>
<feColorMatrix type="matrix" values="0 0 0 0 0 0 0 0 0 0 0 0 0 0 0 0 0 0 0.06 0"/>
<feBlend mode="normal" in2="BackgroundImageFix" result="effect1_dropShadow"/>
<feBlend mode="normal" in="SourceGraphic" in2="effect1_dropShadow" result="shape"/>
</filter>
<linearGradient id="paint0_linear" x1="98" y1="1" x2="146.482" y2="151.499" gradientUnits="userSpaceOnUse">
<stop stop-color="#9EF01A"/>
<stop offset="0.552864" stop-color="#70E000"/>
<stop offset="1" stop-color="#38B000"/>
</linearGradient>
</defs>
</svg>
